-
http:// www . torrentkit. com        
http:// www .torrentkit. com       the fast  and The Hottest Private Tracker on the net

Please Seed back to make the speed Faster!!!

and don't forget to visit      ...... www .torrentkit .com..........
-[align=center][IMG]http://img97.imageshack.us/img97/7039/gacyhousecover.jpg[/IMG]

** ** ** ** ** ** ** ** ** 

IMDB........ http://www.imdb.com/title/tt1667418/

** ** ** ** ** ** ** ** ** 

[b]PLOT[/b]

A group of paranormal investigators enter the abandoned home of pedophile and serial killer John Gacy, hoping to find evidence of paranormal activity. Upon entering the house they set-up cameras throughout the abandoned house while going room to room with hand-held cameras, performing sances and asking for John Gacy to come forward. As the evening progresses it seems the investigators are not prepared for the horror still within the house. 

** ** ** ** ** ** ** ** ** 

[b]AVI Information[/b]

Complete name                    : 8213.Gacy.House.2010 480 BRRip Xvid AC3 - PRESTiGE (1).avi
Format                           : AVI
Format/Info                      : Audio Video Interleave
File size                        : 1.78 GiB
Duration                         : 1h 25mn
Overall bit rate                 : 2 987 Kbps
Source                           : 8213.Gacy.House.2010.1080p.BluRay.x264-UNTOUCHABLES
Encoder                          : Twisted

[b]Video Stream[/b]

ID                               : 0
Format                           : MPEG-4 Visual
Format profile                   : Advanced Simple@L5
Format settings, BVOP            : 2
Format settings, QPel            : No
Format settings, GMC             : No warppoints
Format settings, Matrix          : Default (MPEG)
Codec ID                         : XVID
Codec ID/Hint                    : XviD
Duration                         : 1h 25mn
Bit rate                         : 2 531 Kbps
Width                            : 720 pixels
Height                           : 400 pixels
Display aspect ratio             : 16:9
Frame rate                       : 23.976 fps
Color space                      : YUV
Chroma subsampling               : 4:2:0
Bit depth                        : 8 bits
Scan type                        : Progressive
Compression mode                 : Lossy
Bits/(Pixel*Frame)               : 0.367
Stream size                      : 1.51 GiB (85%)
Writing library                  : XviD 1.2.1 (UTC 2008-12-04)

[b]Audio Stream[/b]

ID                               : 1
Format                           : AC-3
Format/Info                      : Audio Coding 3
Mode extension                   : CM (complete main)
Codec ID                         : 2000
Duration                         : 1h 25mn
Bit rate mode                    : Constant
Bit rate                         : 448 Kbps
Channel(s)                       : 2 channels
Channel positions                : Front: L R
Sampling rate                    : 48.0 KHz
Bit depth                        : 16 bits
Compression mode                 : Lossy
Stream size                      : 273 MiB (15%)
Alignment                        : Aligned on interleaves
Interleave, duration             : 64 ms (1.53 video frames)
Interleave, preload duration     : 192 ms
Title                            : T2_Audio - 2.0 channels

** ** ** ** ** ** ** ** ** 

[b]Screens[/b]

[IMG]http://img717.imageshack.us/img717/2221/pic11u.png[/IMG]
[IMG]http://img3.imageshack.us/img3/9830/pic12a.png[/IMG]
[IMG]http://img222.imageshack.us/img222/4308/pic13r.png[/IMG]
[IMG]http://img26.imageshack.us/img26/3433/pic14k.png[/IMG]
[IMG]http://img823.imageshack.us/img823/3494/pic15.png[/IMG]
[IMG]http://img560.imageshack.us/img560/1613/pic16h.png[/IMG]
[IMG]http://img8.imageshack.us/img8/3402/pic17m.png[/IMG]
[IMG]http://img3.imageshack.us/img3/2048/pic18s.png[/IMG]

** ** ** ** ** ** ** ** **

Note

PRESTiGE - IS LOOKING FOR?: CAMMER'S, AUDIO SUPPLIERS, SYNCER'S, RETAIL SUPPLIER'S, SILVER'S, SCREENER'S, LINE CAPPER'S

ENCODER'S - ANYTHING AT ALL EMAIL US AT..... prestige@twistedtorrents.com

** ** ** ** ** ** ** ** **

Greets Are Flying Out To:

[b]BmB,HiTM4N,BIGGUY,Demedic,DiLLoN,Imagine,CTFX,Jammo
Encoders Past And Present[/b]

** ** ** ** ** ** ** ** ** 

PRESTiGE is the level of respect at which one is regarded by others....RIzE Above Or Sink Below

[IMG]http://leetleech.org/images/83508160282003703104.png[/IMG][/align]